# xmcd
#
# Track frame offsets:
#	150
#	12400
#	24752
#	33785
#	44515
#	52150
#	59865
#	71180
#	79850
#	88295
#	99110
#	106522
#	115652
#	128252
#	141077
#	154607
#	165332
#	175077
#	187267
#	202890
#	215517
#	227730
#	241432
#	256375
#	269827
#	283275
#
# Disc length: 3975 seconds
#
# Revision: 0
# Processed by: cddbd v1.5.2PL0 Copyright (c) Steve Scherf et al.
# Submitted via: audiograbber 1.83.01
#
DISCID=700f851a
DTITLE=The Dave Clark Five - Glad All Over Again - (Thirty Five Solid Gold Hits
DTITLE=Various Artist - A Selection Of The DC5's 50 Million Sellers) [remastered]
DYEAR=1993
DGENRE=Beat
TTITLE0=Glad All Over
TTITLE1=Do You Love Me
TTITLE2=Bits And Pieces
TTITLE3=Can't You See That She's Mine
TTITLE4=Don't Let Me Down
TTITLE5=Everybody Knows (I Still Love You)
TTITLE6=Any Way You Want It
TTITLE7=Catch Us If You Can
TTITLE8=Having A Wild Weekend
TTITLE9=Because
TTITLE10=I Like It Like That
TTITLE11=Over And Over
TTITLE12=Reelin' And Rockin'
TTITLE13=Come Home
TTITLE14=You Got What It Takes
TTITLE15=Everybody Knows
TTITLE16=Try Too Hard
TTITLE17=I'll Be Yours My Love
TTITLE18=Good Old Rock 'n' Roll: a) Good Old Rock 'n' Roll b) Sweet Little Sixt
TTITLE18=een c) Long Tall Sally d) Chantilly Lace e) Whole Lotta Shakin' Goin' 
TTITLE18=On f) Blue Suede Shoes g) Good Old Rock 'n' Roll
TTITLE19=Here Comes Summer
TTITLE20=Live In The Sky
TTITLE21=The Red Balloon
TTITLE22=Sha-Na-Na Hey Hey Kiss Him Goodbye
TTITLE23=More Good Old Rock 'n' Roll: a) Rock 'n' Roll Music b) Blueberry Hill 
TTITLE23=c) Good Golly Miss Molly d) My Blue Heaven e) Keep A-Knockin' f) Rock 
TTITLE23='n' Roll Music
TTITLE24=Put A Little Love In Your Heart
TTITLE25=Everybody Get Together
EXTD=
EXTT0=
EXTT1=
EXTT2=
EXTT3=
EXTT4=
EXTT5=
EXTT6=
EXTT7=
EXTT8=
EXTT9=
EXTT10=
EXTT11=
EXTT12=
EXTT13=
EXTT14=
EXTT15=
EXTT16=
EXTT17=
EXTT18=
EXTT19=
EXTT20=
EXTT21=
EXTT22=
EXTT23=
EXTT24=
EXTT25=
PLAYORDER=
